#!OML:ASF E:/inclinewalkrobotboard/Project1/Captureday1/Session1/subject1.ASF
:FULLY-SPECIFIED
:DEGREES
1
root 0 0 0 1.4841473319863288 -3.764883686661592 1.9285730598939308
lowerback 12.254969837778852 0.919512491032062 -0.046036774564748306
upperback -4.455767741004242 1.155585436095582 -0.6389641974703674
thorax -11.75914189379764 0.5341042709026619 -0.8993378795057811
lowerneck -6.026559820897406 1.859661096311913 4.781681057273928
upperneck 18.117817158488894 3.489740524702974 -8.588513200406759
head 6.64541540565688 1.3043535235881838 -3.2835096972942823
rclavicle 1.904455241093868E-15 -6.355765914881056E-16
rhumerus 20.762938361815245 15.24871422159564 -47.661963971260334
rradius 72.98724249323801
rwrist 26.883619566108383
rhand -34.55751702459074 -57.072525498012595
rfingers 7.125020000000028
rthumb -7.6617792410954255 -87.02465068546107
lclavicle -8.429193474062465E-16 -7.364073518733108E-16
lhumerus 22.979777337840325 -14.327406175802732 44.79608937560336
lradius 71.68061536198734
lwrist -22.25870736101259
lhand -45.678625559555506 -71.75821892034853
lfingers 7.125020000000028
lthumb -18.435275347638093 -42.542635147712616
rfemur -26.414769065466047 -2.6072887923443533 16.641112746656503
rtibia 54.911237195140004
rfoot -30.857521929213206 -18.145137484819287
rtoes -19.63682010899553
lfemur -27.499106546297437 2.8867545910803916 -17.981264164708183
ltibia 53.88738723872095
lfoot -34.49810754661529 -1.2632891838624123
ltoes -20.41134134597841
2
root 0 0 0 1.5004260361313269 -3.790704153943681 1.9061135707758403
lowerback 12.263782510530563 0.9239993058055865 -0.024943329070710063
upperback -4.456264295806244 1.1638958210630486 -0.6335921454128516
thorax -11.76441399463197 0.5378405840978665 -0.9063788264639459
lowerneck -6.027228315408819 1.868982556386037 4.785870067328333
upperneck 18.0970008878863 3.504655564190526 -8.598776690435436
head 6.638280623319758 1.3107546660992693 -3.285845862256079
rclavicle 2.213850624235111E-15 -6.547241854819313E-16
rhumerus 21.00454443135387 15.533943932764826 -47.77463136832879
rradius 73.19910899156582
rwrist 26.73842328202383
rhand -34.5967216222592 -57.1552643524926
rfingers 7.1250200000000286
rthumb -7.699596807546698 -87.10659839931179
lclavicle -6.47519355210587E-16 -7.522893015029869E-16
lhumerus 23.202480358251798 -14.526748996829898 44.771397485072335
lradius 71.87093744703043
lwrist -22.213073422849263
lhand -45.755876615205395 -71.9022445876422
lfingers 7.1250200000000286
lthumb -18.51085017000776 -42.68426273252737
rfemur -26.239054889254724 -2.3258520046587856 17.084390816938775
rtibia 52.98315413794218
rfoot -32.591965271624545 -18.507919548246253
rtoes -20.254645327311245
lfemur -27.918549080262927 2.636573523154747 -17.889270995735625
ltibia 52.37540767420764
lfoot -36.051318267131506 -0.2889161368859865
ltoes -20.845731439151045
3
root 0 0 0 1.5217916003661438 -3.8189118016785266 1.8879581764125994
lowerback 12.256282311146885 0.9346358307782652 -0.01071170922969622
upperback -4.452142315174217 1.179255431890648 -0.6315185256577428
thorax -11.754031804684253 0.5450659503275423 -0.9139599162911702
lowerneck -6.041907752706774 1.8680317363955916 4.778668521493705
upperneck 18.083556527615375 3.5029443606082573 -8.58871331876006
head 6.636126217601463 1.3102025246794713 -3.2814054884271746
rclavicle 2.2944799665887337E-15 -5.77003126244346E-16
rhumerus 21.13779724237922 15.709144485732216 -47.879332369778126
rradius 73.31244570843272
rwrist 26.620814681143077
rhand -34.606475364334045 -57.148802153203846
rfingers 7.1250200000000286
rthumb -7.709342177927471 -87.10616598309377
lclavicle -6.337082666815282E-16 -7.011485763162423E-16
lhumerus 23.266024433041586 -14.609713541387851 44.780462354666966
lradius 71.93644552137985
lwrist -22.175482629392896
lhand -45.77102531890958 -71.89031889924236
lfingers 7.125020000000029
lthumb -18.5259516395635 -42.67072930734082
rfemur -25.898531769539325 -2.023104704215699 17.544596987520613
rtibia 51.0673009660097
rfoot -34.0144957135366 -18.65625241162659
rtoes -20.927590011518415
lfemur -28.111278950608494 2.3512277666081447 -17.670799671195123
ltibia 50.913422115609634
lfoot -36.872113539284186 0.3531446741433468
ltoes -21.40545612033908
4
root 0 0 0 1.5407508673360542 -3.8452031763937464 1.8703534403459394
lowerback 12.245748230202883 0.9464229135559403 0.0031708563067300854
upperback -4.447665815065396 1.1959715992059499 -0.6301083155719241
thorax -11.741345223967247 0.5529603022577259 -0.9221513880472247
lowerneck -6.058624933723811 1.865490784334274 4.771287425933997
upperneck 18.080307451333475 3.498607456547491 -8.578397981449408
head 6.637620175727615 1.3083434222322827 -3.277169482300141
rclavicle 2.32910784553449E-15 -5.418042907376217E-16
rhumerus 21.20137492113556 15.793866644804973 -47.93288372476769
rradius 73.36686101752352
rwrist 26.561967295910463
rhand -34.61067086138666 -57.14039865540672
rfingers 7.1250200000000286
rthumb -7.713662220409926 -87.10274253166665
lclavicle -6.307932967273025E-16 -6.744202718995407E-16
lhumerus 23.27198815103241 -14.622595088815673 44.78501765242058
lradius 71.94442888200507
lwrist -22.16485951736623
lhand -45.76992479665443 -71.87258005396401
lfingers 7.1250200000000286
lthumb -18.52486956688689 -42.652774945301715
rfemur -25.504701989350323 -1.7926151811385722 17.901178976291057
rtibia 49.65004955674816
rfoot -34.96221719255051 -18.65678687838128
rtoes -21.553862375133676
lfemur -28.164188666266057 2.1103700924325195 -17.418456379305844
ltibia 49.87194075041883
lfoot -37.06586684176615 0.6202527577355532
ltoes -21.942142368752947
